<svg width="1739" height="1662" viewBox="0 0 1739 1662" fill="none" xmlns="http://www.w3.org/2000/svg">
<path d="M394.568 1661.39V540.388H21.9626V1661.39H394.607H394.568ZM208.343 387.36C338.251 387.36 419.127 301.28 419.127 193.704C416.696 83.6776 338.251 0 210.814 0C83.2886 0 0 83.6776 0 193.695C0 301.271 80.8472 387.351 205.902 387.351H208.314L208.343 387.36ZM600.81 1661.39H973.386V1035.44C973.386 1001.98 975.817 968.435 985.661 944.537C1012.58 877.569 1073.89 808.248 1176.85 808.248C1311.64 808.248 1365.59 911.038 1365.59 1061.75V1661.39H1738.16V1018.64C1738.16 674.333 1554.36 514.107 1309.22 514.107C1108.24 514.107 1019.98 626.439 970.935 702.948H973.415V540.427H600.829C605.692 645.591 600.8 1661.43 600.8 1661.43L600.81 1661.39Z" fill="black" fill-opacity="0.6"/>
</svg>
