<svg width="2500" height="2432" viewBox="0 0 2500 2432" fill="none" xmlns="http://www.w3.org/2000/svg">
<path d="M1245.17 0C557.568 0 0 557.471 0 1245.17C0 1795.32 356.777 2262.06 851.523 2426.71C913.75 2438.23 936.602 2399.7 936.602 2366.81C936.602 2337.12 935.439 2239.02 934.912 2134.98C588.496 2210.3 515.4 1988.07 515.4 1988.07C458.76 1844.14 377.148 1805.88 377.148 1805.88C264.18 1728.59 385.664 1730.18 385.664 1730.18C510.703 1738.96 576.543 1858.5 576.543 1858.5C687.598 2048.86 867.832 1993.82 938.887 1962.01C950.059 1881.52 982.334 1826.6 1017.94 1795.51C741.377 1764.01 450.635 1657.25 450.635 1180.14C450.635 1044.2 499.277 933.115 578.936 845.918C566.006 814.551 523.389 687.91 590.996 516.397C590.996 516.397 695.557 482.93 933.506 644.033C1032.82 616.436 1139.35 602.607 1245.17 602.139C1350.99 602.607 1457.59 616.436 1557.1 644.033C1794.77 482.93 1899.18 516.397 1899.18 516.397C1966.95 687.91 1924.32 814.551 1911.39 845.918C1991.22 933.115 2039.53 1044.19 2039.53 1180.14C2039.53 1658.38 1748.24 1763.69 1470.98 1794.51C1515.63 1833.15 1555.43 1908.94 1555.43 2025.1C1555.43 2191.7 1553.98 2325.79 1553.98 2366.81C1553.98 2399.94 1576.4 2438.77 1639.52 2426.54C2133.99 2261.71 2490.32 1795.14 2490.32 1245.17C2490.32 557.471 1932.83 0 1245.17 0Z" fill="white" fill-opacity="0.6"/>
<path d="M466.358 1773.77C463.624 1779.95 453.877 1781.81 445.02 1777.57C435.987 1773.51 430.909 1765.07 433.838 1758.86C436.524 1752.49 446.27 1750.71 455.284 1754.99C464.336 1759.04 469.493 1767.56 466.358 1773.77V1773.77ZM527.608 1828.42C521.67 1833.93 510.059 1831.37 502.178 1822.67C494.034 1813.99 492.51 1802.38 498.536 1796.79C504.659 1791.29 515.918 1793.86 524.083 1802.55C532.227 1811.33 533.809 1822.86 527.598 1828.43L527.608 1828.42ZM569.629 1898.34C561.993 1903.64 549.512 1898.67 541.807 1887.6C534.18 1876.53 534.18 1863.25 541.973 1857.93C549.708 1852.61 561.993 1857.39 569.805 1868.38C577.422 1879.64 577.422 1892.92 569.62 1898.35L569.629 1898.34ZM640.684 1979.33C633.858 1986.85 619.327 1984.84 608.682 1974.56C597.803 1964.52 594.766 1950.27 601.612 1942.75C608.516 1935.21 623.135 1937.33 633.858 1947.51C644.668 1957.53 647.969 1971.89 640.694 1979.33H640.684ZM732.52 2006.67C729.522 2016.42 715.518 2020.85 701.417 2016.71C687.334 2012.44 678.116 2001.02 680.958 1991.16C683.887 1981.35 697.95 1976.73 712.159 1981.16C726.221 1985.41 735.46 1996.75 732.53 2006.67H732.52ZM837.051 2018.26C837.403 2028.54 825.44 2037.05 810.635 2037.24C795.743 2037.56 783.702 2029.25 783.545 2019.15C783.545 2008.78 795.235 2000.34 810.118 2000.1C824.922 1999.81 837.051 2008.06 837.051 2018.26V2018.26ZM939.727 2014.33C941.504 2024.35 931.211 2034.64 916.514 2037.37C902.061 2040.01 888.682 2033.83 886.836 2023.9C885.04 2013.62 895.528 2003.34 909.952 2000.68C924.678 1998.12 937.852 2004.14 939.727 2014.33" fill="white" fill-opacity="0.6"/>
</svg>
