<svg width="2500" height="2500" viewBox="0 0 2500 2500" fill="none" xmlns="http://www.w3.org/2000/svg">
<g clip-path="url(#clip0_105_21)">
<path d="M2500 474.657C2408.06 515.393 2309.3 542.919 2205.47 555.36C2311.39 491.943 2392.65 391.305 2430.96 271.513C2331.87 330.311 2222.1 373.028 2105.28 395.93C2011.69 296.401 1878.47 234.082 1730.93 234.082C1447.74 234.082 1218.07 463.755 1218.07 747.161C1218.08 786.437 1222.52 825.587 1231.28 863.873C804.855 842.399 427.089 638.157 174.073 327.888C130.037 403.859 104.708 491.943 104.708 585.749C104.708 763.672 195.327 920.792 332.841 1012.73C251.396 1010.14 171.748 988.129 100.525 948.539V955.144C100.525 1203.64 277.241 1410.97 511.98 1458.1C467.933 1469.98 422.505 1475.98 376.883 1475.93C344.485 1475.96 312.157 1472.93 280.326 1466.9C345.616 1670.59 534.994 1819.01 759.494 1822.97C583.876 1960.6 362.682 2042.63 122.435 2042.63C81.0367 2042.63 40.1873 2040.21 0 2035.47C227.035 2181.14 496.567 2265.92 786.137 2265.92C1729.72 2265.92 2245.55 1484.41 2245.55 806.615C2245.55 784.597 2245 762.353 2244.01 740.334C2344.2 667.884 2431.18 577.712 2499.77 474.985L2500 474.657Z" fill="white" fill-opacity="0.6"/>
</g>
<defs>
<clipPath id="clip0_105_21">
<rect width="2500" height="2500" fill="white"/>
</clipPath>
</defs>
</svg>
