<svg width="94" height="34" viewBox="0 0 94 34" fill="none" xmlns="http://www.w3.org/2000/svg">
<path d="M20.54 27.64V27.14H20.04H8.41316L20.4563 9.03694L20.54 8.91112V8.76V4.44V3.94H20.04H1H0.5V4.44V9.16V9.66H1H12.5501L0.58289 27.7643L0.5 27.8897V28.04V32.36V32.86H1H20.04H20.54V32.36V27.64ZM24.2438 15.0083L24.2438 15.0082L24.241 15.0137C23.3204 16.8271 22.8669 18.8934 22.8669 21.2C22.8669 23.5325 23.32 25.6243 24.2397 27.4636L24.2396 27.4636L24.2438 27.4718C25.1876 29.2761 26.4589 30.6916 28.0599 31.7028L28.0632 31.7048C29.6911 32.7153 31.4895 33.22 33.4469 33.22C35.1686 33.22 36.705 32.8724 38.0417 32.1614L38.045 32.1596C38.9175 31.6871 39.673 31.1333 40.3069 30.4965V32.36V32.86H40.8069H46.4469H46.9469V32.36V10.2V9.7H46.4469H40.8069H40.3069V10.2V12.0289C39.6641 11.4025 38.9084 10.8598 38.0438 10.3997C36.7318 9.68712 35.2074 9.34 33.4869 9.34C31.5071 9.34 29.697 9.82922 28.0685 10.8119L28.0685 10.8119L28.0652 10.8139C26.461 11.799 25.1881 13.2029 24.2438 15.0083ZM39.567 18.0378L39.567 18.0378L39.5698 18.0428C40.0531 18.9128 40.3069 19.985 40.3069 21.28C40.3069 22.5733 40.0538 23.6605 39.5684 24.5597C39.0775 25.4424 38.4215 26.1208 37.5982 26.6062C36.7675 27.0694 35.8798 27.3 34.9269 27.3C34.0072 27.3 33.1353 27.0595 32.3032 26.5707C31.5068 26.0874 30.8467 25.3958 30.3257 24.4801C29.8383 23.5511 29.5869 22.4624 29.5869 21.2C29.5869 19.9346 29.8395 18.8759 30.3228 18.0049C30.8439 17.0875 31.503 16.4101 32.2964 15.9533C33.0986 15.4914 33.9722 15.26 34.9269 15.26C35.8767 15.26 36.7626 15.5023 37.5934 15.991L37.5933 15.9911L37.603 15.9965C38.4201 16.4531 39.0751 17.1276 39.567 18.0378ZM51.9227 6.99355L51.9301 7.00092L51.9377 7.00797C52.7053 7.7141 53.6563 8.06 54.7562 8.06C55.856 8.06 56.7983 7.71393 57.5422 7.001L57.5425 7.00069C58.3085 6.26535 58.6963 5.34795 58.6963 4.28C58.6963 3.21517 58.3104 2.30927 57.5424 1.5991C56.8009 0.861365 55.8587 0.5 54.7562 0.5C53.6503 0.5 52.6967 0.863375 51.9303 1.59901C51.1862 2.31209 50.8162 3.21844 50.8162 4.28C50.8162 5.34132 51.1857 6.25656 51.9227 6.99355ZM58.0163 10.2V9.7H57.5163H51.9162H51.4162V10.2V32.36V32.86H51.9162H57.5163H58.0163V32.36V10.2ZM84.1691 32.86H84.6691V32.36V19.36C84.6691 16.2823 83.829 13.8223 82.0869 12.0508C80.3537 10.2615 78.0846 9.38 75.3291 9.38C73.8739 9.38 72.5205 9.67416 71.2762 10.2676C70.4779 10.6391 69.7681 11.1099 69.1491 11.6798V10.2V9.7H68.6491H63.0491H62.5491V10.2V32.36V32.86H63.0491H68.6491H69.1491V32.36V20.12C69.1491 18.4397 69.5684 17.234 70.3326 16.4233C71.1285 15.5806 72.2143 15.14 73.6491 15.14C75.0546 15.14 76.1112 15.5787 76.8804 16.4179L76.8853 16.423C77.6496 17.2337 78.0691 18.4394 78.0691 20.12V32.36V32.86H78.5691H84.1691Z" fill="white" stroke="#F5F5F5"/>
<circle cx="91" cy="30.3604" r="3" fill="#6C3DFC"/>
</svg>
