<svg width="1734" height="2500" viewBox="0 0 1734 2500" fill="none" xmlns="http://www.w3.org/2000/svg">
<path d="M1455.61 1066.16C1559.01 1082.06 1630.6 1129.78 1670.37 1193.42C1710.14 1257.05 1734 1368.41 1734 1511.58C1734 1797.93 1646.51 2036.56 1471.52 2219.5C1296.52 2402.45 1073.81 2497.89 803.37 2497.89C699.96 2497.89 596.557 2481.99 493.154 2442.21C389.75 2402.45 310.21 2346.77 238.621 2283.14C159.081 2211.54 95.4513 2124.05 55.6777 2044.51C23.8628 1957.02 0 1869.52 0 1782.03C0 1686.57 23.8628 1607.03 63.6297 1551.36C103.403 1495.68 174.985 1463.86 262.484 1440C246.58 1400.23 230.669 1368.41 222.717 1336.59C214.759 1312.73 206.807 1288.87 206.807 1272.96C206.807 1225.24 230.669 1169.56 286.347 1113.88C342.025 1058.2 389.75 1034.34 437.476 1034.34C461.339 1034.34 477.25 1034.34 501.112 1042.29C524.975 1050.24 548.838 1058.2 580.653 1082.06C509.064 843.438 437.476 644.583 397.702 509.365C357.936 374.147 342.025 286.655 342.025 230.97C342.025 159.382 357.936 103.704 397.702 63.9372C429.531 24.1568 485.208 0.300781 548.845 0.300781C652.248 0.300781 787.466 238.929 954.506 724.124C986.321 803.671 1002.22 867.301 1018.14 915.026C1034.05 883.212 1049.95 827.527 1073.81 763.897C1240.84 286.648 1384.02 48.0264 1495.38 48.0264C1551.06 48.0264 1598.78 63.9304 1638.55 103.704C1670.37 143.478 1694.23 199.155 1694.23 262.785C1694.23 310.511 1678.32 405.962 1638.55 541.18C1590.82 676.405 1535.15 851.39 1455.6 1066.16H1455.61ZM230.663 1766.12C246.573 1782.03 270.436 1813.84 294.299 1853.61C365.888 1957.01 437.476 2012.69 501.112 2012.69C524.975 2012.69 540.879 2004.74 556.79 1988.83C572.694 1972.92 580.653 1957.01 580.653 1949.05C580.653 1933.15 572.694 1901.33 548.838 1861.56C524.975 1821.79 493.16 1774.07 453.387 1726.34C405.661 1670.66 365.888 1622.94 342.031 1599.07C310.21 1575.21 286.354 1559.31 270.436 1559.31C230.669 1559.31 190.896 1583.16 159.081 1622.94C127.266 1662.71 111.355 1718.38 111.355 1774.07C111.355 1821.79 119.314 1869.51 143.177 1933.15C167.04 1988.83 198.855 2052.46 246.58 2108.14C318.162 2187.68 397.709 2259.27 501.112 2306.99C604.516 2354.71 707.919 2378.58 835.178 2378.58C1057.9 2378.58 1240.84 2299.04 1391.98 2132C1543.1 1964.96 1614.69 1758.16 1614.69 1503.62C1614.69 1424.08 1606.73 1368.41 1598.78 1320.67C1590.82 1272.96 1566.96 1241.14 1543.1 1225.23C1495.38 1185.46 1407.88 1153.64 1272.66 1121.83C1137.44 1090.01 994.266 1074.1 851.089 1074.1C811.322 1074.1 779.508 1082.05 763.597 1097.96C747.686 1113.87 739.734 1137.74 739.734 1169.55C739.734 1249.09 779.508 1304.77 867 1336.58C954.492 1368.41 1097.67 1392.26 1288.57 1392.26H1360.15C1376.06 1392.26 1391.98 1400.22 1399.93 1408.18C1407.88 1424.08 1415.84 1439.99 1415.84 1463.86C1399.92 1479.76 1360.16 1503.62 1296.52 1527.49C1232.89 1551.35 1193.12 1575.21 1161.31 1599.08C1089.71 1646.8 1034.03 1710.43 994.266 1782.02C954.493 1853.61 930.63 1917.24 930.63 1980.87C930.63 2020.64 938.589 2060.41 954.493 2116.09C970.41 2171.77 978.355 2203.58 978.355 2211.54V2243.36C930.63 2243.36 890.863 2211.54 859.048 2155.87C827.226 2100.19 819.274 2028.59 819.274 1933.15V1917.24C811.322 1925.19 803.37 1933.15 795.412 1933.15C787.46 1933.15 779.508 1941.1 763.597 1941.1H731.782C723.823 1941.1 715.871 1933.15 699.96 1933.15C699.96 1949.05 707.919 1957.01 707.919 1972.92V2004.74C707.919 2044.5 692.008 2084.28 660.193 2116.09C628.379 2147.91 588.605 2163.82 540.879 2163.82C469.291 2163.82 397.709 2132 318.169 2060.41C246.573 1988.83 206.813 1925.19 206.813 1853.61C206.813 1837.7 206.813 1829.75 214.759 1821.79C214.759 1782.02 222.717 1774.07 230.669 1766.11L230.663 1766.12ZM747.679 1805.88C763.59 1805.88 787.453 1797.93 803.357 1782.03C819.274 1766.12 827.22 1742.25 827.22 1726.35C827.22 1702.49 811.316 1654.75 779.501 1575.22C747.679 1495.68 707.906 1416.14 660.187 1344.55C628.372 1288.87 588.598 1241.15 556.783 1217.28C524.968 1185.46 493.147 1177.52 461.332 1177.52C437.469 1177.52 413.606 1193.42 381.792 1225.24C349.977 1257.05 342.018 1280.91 342.018 1312.73C342.018 1336.59 357.929 1384.32 381.792 1440C413.606 1495.68 445.421 1551.36 493.147 1614.99C540.879 1678.62 588.612 1734.3 636.331 1774.07C684.056 1789.98 715.871 1805.89 747.686 1805.89L747.679 1805.88ZM914.712 978.656L723.816 445.729C676.097 310.511 644.276 215.059 612.461 175.293C588.598 135.519 564.735 111.656 532.921 111.656C509.058 111.656 493.147 119.615 477.243 135.519C453.38 159.382 445.421 183.245 445.421 215.059C445.421 270.737 469.284 358.236 509.058 485.502C548.831 612.769 612.461 787.76 692.008 994.567C699.953 978.656 707.912 970.704 723.816 970.704C739.727 962.752 755.638 962.752 771.542 962.752H811.316C835.178 970.704 866.993 970.704 914.719 978.656H914.712ZM1105.61 1495.67C1057.89 1495.67 1010.17 1487.72 962.445 1479.77C914.719 1471.82 874.945 1463.86 835.172 1447.95C851.089 1487.72 866.993 1519.54 882.904 1559.31C898.808 1599.08 906.767 1630.9 914.719 1670.66C938.582 1638.85 970.397 1607.03 1002.21 1575.22C1041.99 1543.4 1073.81 1519.54 1105.61 1495.68V1495.67ZM1336.28 1034.33C1415.83 827.527 1471.51 652.542 1519.23 517.317C1559 382.099 1582.86 302.559 1582.86 270.744C1582.86 238.922 1574.91 215.066 1559 191.197C1543.1 175.293 1527.19 167.341 1503.32 167.341C1471.51 167.341 1439.69 191.197 1407.87 246.881C1376.06 302.559 1336.28 382.099 1296.52 501.413L1121.53 994.567L1336.28 1034.34V1034.33Z" fill="white" fill-opacity="0.6"/>
</svg>
